HIERARCHY
ROOT root
{
	OFFSET 0.000000 0.000000 0.000000
	CHANNELS 6 Xposition Yposition Zposition Zrotation Yrotation Xrotation
	JOINT lhip
	{
		OFFSET 0.058581 -0.082280 -0.017664
		CHANNELS 3 Zrotation Yrotation Xrotation
		JOINT lknee
		{
			OFFSET 0.043451 -0.386469 0.008037
			CHANNELS 3 Zrotation Yrotation Xrotation
			JOINT lankle
			{
				OFFSET -0.014790 -0.426874 -0.037428
				CHANNELS 3 Zrotation Yrotation Xrotation
				JOINT ltoe
				{
					OFFSET 0.041054 -0.060286 0.122042
					CHANNELS 3 Zrotation Yrotation Xrotation
					End Site
					{
						OFFSET 0.000000 0.000000 0.000000
					}
				}
			}
		}
	}
	JOINT rhip
	{
		OFFSET -0.060310 -0.090513 -0.013543
		CHANNELS 3 Zrotation Yrotation Xrotation
		JOINT rknee
		{
			OFFSET -0.043257 -0.383688 -0.004843
			CHANNELS 3 Zrotation Yrotation Xrotation
			JOINT rankle
			{
				OFFSET 0.019056 -0.420046 -0.034562
				CHANNELS 3 Zrotation Yrotation Xrotation
				JOINT rtoe
				{
					OFFSET -0.034840 -0.062106 0.130323
					CHANNELS 3 Zrotation Yrotation Xrotation
					End Site
					{
						OFFSET 0.000000 0.000000 0.000000
					}
				}
			}
		}
	}
	JOINT lowerback
	{
		OFFSET 0.004439 0.124404 -0.038385
		CHANNELS 3 Zrotation Yrotation Xrotation
		JOINT upperback
		{
			OFFSET 0.004488 0.137956 0.026820
			CHANNELS 3 Zrotation Yrotation Xrotation
			JOINT chest
			{
				OFFSET -0.002265 0.056032 0.002855
				CHANNELS 3 Zrotation Yrotation Xrotation
				JOINT lowerneck
				{
					OFFSET -0.013390 0.211636 -0.033468
					CHANNELS 3 Zrotation Yrotation Xrotation
					JOINT upperneck
					{
						OFFSET 0.010113 0.088937 0.050410
						CHANNELS 3 Zrotation Yrotation Xrotation
						End Site
						{
							OFFSET 0.000000 0.000000 0.000000
						}
					}
				}
				JOINT lclavicle
				{
					OFFSET 0.071702 0.114000 -0.018898
					CHANNELS 3 Zrotation Yrotation Xrotation
					JOINT lshoulder
					{
						OFFSET 0.122921 0.045205 -0.019046
						CHANNELS 3 Zrotation Yrotation Xrotation
						JOINT lelbow
						{
							OFFSET 0.255332 -0.015649 -0.022946
							CHANNELS 3 Zrotation Yrotation Xrotation
							JOINT lwrist
							{
								OFFSET 0.265709 0.012698 -0.007375
								CHANNELS 3 Zrotation Yrotation Xrotation
								End Site
								{
									OFFSET 0.000000 0.000000 0.000000
								}
							}
						}
					}
				}
				JOINT rclavicle
				{
					OFFSET -0.082954 0.112472 -0.023707
					CHANNELS 3 Zrotation Yrotation Xrotation
					JOINT rshoulder
					{
						OFFSET -0.113228 0.046853 -0.008472
						CHANNELS 3 Zrotation Yrotation Xrotation
						JOINT relbow
						{
							OFFSET -0.260127 -0.014369 -0.031269
							CHANNELS 3 Zrotation Yrotation Xrotation
							JOINT rwrist
							{
								OFFSET -0.269108 0.006794 -0.006027
								CHANNELS 3 Zrotation Yrotation Xrotation
								End Site
								{
									OFFSET 0.000000 0.000000 0.000000
								}
							}
						}
					}
				}
			}
		}
	}
}
MOTION
Frames: 17
Frame Time: 0.033333
0.441425 0.183048 0.997424 88.523565 2.971550 101.601162 4.797320 3.331585 -13.032595 2.959646 -0.187459 -5.359335 -0.242159 10.806414 0.287365 0.000000 -0.000000 0.000000 -2.179295 -1.260002 -18.880137 -1.353614 1.689299 5.406572 4.927338 -8.336538 -0.669844 0.000000 -0.000000 0.000000 -0.867705 0.781974 13.185354 3.662214 -4.315053 -0.662332 4.236400 1.240290 -1.427666 -5.799780 -1.284169 0.482215 4.616646 12.977217 -6.672875 -6.445177 -12.633277 -5.917047 -44.417674 -18.820599 25.289448 111.152747 -79.650612 -113.504885 16.369262 11.514002 -47.353917 3.466498 13.990507 -4.259015 23.544157 29.004391 11.406873 91.818895 82.092276 82.941394 -7.280955 -5.542747 -46.740453 
0.444045 0.182686 0.996214 89.023480 2.915281 101.532786 4.900294 3.301924 -12.705033 2.793738 -0.253135 -5.633221 -0.378608 10.504041 0.298740 0.000000 -0.000000 0.000000 -2.213375 -1.342143 -18.545557 -1.413389 1.378328 5.463172 4.934899 -8.339581 -0.880621 0.000000 -0.000000 0.000000 -0.769101 0.463758 12.280479 3.700473 -4.487106 -0.876953 4.058214 1.171049 -1.300274 -6.276739 -1.229967 2.307017 4.819343 13.074936 -5.166775 -5.824247 -11.270904 -6.578724 -44.450525 -19.725633 26.271329 132.865980 -77.843574 -135.246027 16.372587 12.235398 -47.469184 2.868776 12.389253 -4.953004 22.919136 28.557175 12.059769 130.174587 79.445929 119.268107 -6.321616 -5.290655 -49.192282 
0.446732 0.182401 0.995818 89.619501 2.845444 101.248249 4.977436 3.023370 -12.281719 2.744249 -0.216646 -5.639550 -0.396239 10.186720 0.367326 0.000000 -0.000000 0.000000 -2.216859 -1.465327 -17.931339 -1.546767 1.016436 5.489424 5.240852 -8.352903 -1.112904 0.000000 -0.000000 0.000000 -0.729345 0.366433 11.123601 3.813990 -4.827317 -1.514108 3.867903 1.263262 -0.612965 -7.093685 -1.154285 5.937979 5.671795 13.294532 -3.917495 -3.400604 -10.256097 -7.988523 -43.513797 -21.898743 26.867139 139.808244 -74.816023 -142.404736 16.214550 13.102154 -49.253256 0.602827 10.821461 -6.488546 21.465982 28.344060 11.942009 151.828874 74.927046 141.632037 -7.095460 -5.092749 -51.247696 
0.449155 0.182339 0.996336 90.246487 2.767297 100.788253 4.972064 2.638165 -11.751971 2.863881 -0.081328 -5.475942 -0.647783 9.874658 0.187624 0.000000 -0.000000 0.000000 -2.253692 -1.668634 -17.072228 -1.636123 0.618300 5.418877 5.600958 -8.309018 -1.241695 0.000000 -0.000000 0.000000 -0.652386 0.298274 9.909895 3.877441 -5.194440 -2.747277 3.726617 1.324665 0.701497 -8.101747 -0.595105 11.485447 6.488276 13.344469 -3.773667 -0.013039 -8.876808 -10.023222 -41.315663 -24.858358 26.297625 141.325478 -71.863257 -145.224458 16.036384 12.164223 -52.355755 -3.141052 9.228313 -8.700713 19.216493 28.671686 10.650319 164.700830 70.794423 153.389460 -7.038753 -3.981634 -53.530515 
0.452169 0.182163 0.997262 90.699699 2.661351 100.232995 4.911414 2.377685 -11.010115 2.987947 -0.019212 -5.334264 -0.804722 9.554522 0.004002 0.000000 -0.000000 0.000000 -2.270557 -1.844146 -16.125642 -1.803011 0.306958 5.411475 6.191511 -8.275057 -1.458488 0.000000 -0.000000 0.000000 -0.791544 0.296980 8.527501 3.986265 -5.376317 -4.072651 3.525583 1.171161 2.041151 -8.657312 0.467443 18.166985 7.145048 12.903386 -4.191151 4.643968 -6.944181 -11.794311 -38.210814 -28.366120 23.935158 141.309298 -69.268162 -144.123728 15.887852 10.756147 -52.924475 -7.486457 6.626859 -10.818362 17.386778 29.941862 8.255880 172.919673 68.228690 162.705570 -7.657229 -3.129906 -55.382746 
0.455780 0.182020 0.998665 90.956429 2.521103 99.548031 4.825631 2.296570 -9.968661 3.028579 0.025295 -5.372774 -0.992064 9.310464 -0.231936 0.000000 -0.000000 0.000000 -2.293999 -1.824737 -15.095531 -2.017482 0.191509 5.536520 6.728469 -8.385361 -1.904079 0.000000 -0.000000 0.000000 -0.860654 0.372228 7.339215 3.806807 -5.365852 -5.469298 3.306080 0.976060 3.745964 -9.007118 1.746634 24.776503 7.564357 12.135768 -6.149825 9.850112 -4.906942 -13.504996 -33.799219 -31.095607 20.416696 139.368539 -66.670959 -141.978163 14.649943 7.632478 -54.714151 -12.534463 4.072415 -12.639724 15.419845 30.036523 5.365540 -178.605213 66.615748 172.591389 -8.086614 -1.778417 -58.041851 
0.459315 0.182266 0.999630 91.034247 2.461454 98.772572 4.728323 2.122071 -8.705291 3.226494 0.279101 -5.670084 -1.112758 9.031907 -0.157513 0.000000 -0.000000 0.000000 -2.281554 -1.600315 -14.001203 -2.282475 0.008873 5.645670 7.562927 -8.591966 -2.372361 0.000000 -0.000000 0.000000 -1.412514 0.200352 5.719636 3.798702 -5.480252 -5.657562 3.377267 1.414815 5.428368 -8.802740 3.454081 29.514761 8.345719 11.044150 -8.566072 15.749310 -3.371552 -14.671140 -28.033046 -32.180929 15.422501 135.222693 -64.009261 -135.803010 13.859264 3.088658 -56.313081 -17.179215 2.575805 -13.977083 11.872746 27.842844 1.101145 -168.387619 68.596061 -170.123672 -6.880080 2.025131 -61.597580 
0.463265 0.181828 1.000559 91.056078 2.421652 98.401491 4.563751 2.059644 -7.925802 3.464989 0.393934 -5.966940 -1.466902 9.176241 0.046427 0.000000 -0.000000 0.000000 -2.258813 -1.434943 -13.322843 -2.469312 0.048412 5.619118 8.364268 -8.943523 -2.589009 0.000000 -0.000000 0.000000 -1.481014 0.217521 4.808996 3.317641 -5.406177 -6.978367 3.266597 1.360528 6.740191 -7.351914 5.539104 32.781113 9.034507 9.744025 -11.374173 21.597886 -1.762240 -15.982277 -21.563471 -31.316744 10.796932 130.197077 -62.372046 -130.253522 14.655694 -0.441608 -56.831184 -22.378956 1.594392 -15.411306 8.758567 24.378258 -1.061343 -158.243223 71.069375 -156.890418 -8.644594 4.024428 -63.317660 
0.467136 0.182397 1.002882 91.377772 2.392982 98.099723 4.571245 1.437821 -7.037131 3.683136 1.326579 -6.349761 -1.803181 8.751453 -0.243076 0.000000 -0.000000 0.000000 -2.358804 -1.310641 -12.484690 -2.491804 -1.373812 5.452413 8.761181 -7.631580 -2.459924 0.000000 -0.000000 0.000000 -1.613519 -0.341389 3.882887 3.296724 -5.094614 -7.795086 3.646301 0.875477 8.339554 -4.076706 7.823422 33.986580 7.172721 6.750075 -14.618457 26.391972 1.340335 -17.474438 -16.788003 -29.462853 6.493729 122.375090 -62.366588 -123.513993 9.841770 -11.887191 -58.488853 -27.467224 0.107403 -16.973083 5.463269 21.389843 -4.121800 -142.332758 69.997342 -145.262171 9.341028 15.252598 -51.379470 
0.470424 0.183625 1.004769 91.691333 2.395468 98.121951 4.557700 1.248301 -6.720565 3.836286 1.194703 -6.560455 -1.897692 9.026488 -0.398216 0.000000 -0.000000 0.000000 -2.249394 -1.220453 -12.046020 -2.563476 -1.209820 5.131230 8.877237 -8.119696 -2.650670 0.000000 -0.000000 0.000000 -1.800563 -0.473451 3.491208 3.351856 -4.863094 -9.279004 3.886450 0.595483 9.593699 -2.843209 8.664743 33.380232 7.059809 5.896456 -17.428035 30.310778 5.221727 -18.026322 -12.182968 -28.105831 2.990206 116.935362 -61.959210 -118.370841 8.671937 -14.949605 -58.525920 -31.152166 -3.664739 -17.877998 2.364055 19.866758 -5.886690 -134.216826 71.198573 -136.335787 10.753050 16.524627 -52.585628 
0.474793 0.184592 1.006064 92.109857 2.469212 98.181977 4.658088 1.142463 -6.452430 3.906530 0.821969 -6.770887 -2.237842 9.430329 -0.509682 0.000000 -0.000000 0.000000 -2.081961 -1.400749 -11.494003 -2.502792 -0.859386 4.587423 8.819673 -8.818958 -2.685099 0.000000 -0.000000 0.000000 -1.737021 -0.560827 3.421416 3.179763 -4.679001 -11.109686 4.085735 0.372904 10.796238 -2.266391 8.985609 31.415676 6.891053 5.289461 -20.234176 32.355503 8.397424 -18.644362 -5.669219 -26.116391 -0.851862 111.175887 -62.158514 -114.330178 7.864404 -18.318118 -58.115126 -33.478219 -6.841210 -17.979240 -1.341074 17.658157 -8.582944 -126.005972 71.724406 -128.328720 14.338369 20.090209 -48.392381 
0.479527 0.185160 1.007386 92.390995 2.569754 98.328699 4.783753 1.177396 -6.267623 3.987960 0.601293 -6.911250 -2.787540 9.545718 -0.678942 0.000000 -0.000000 0.000000 -1.886914 -1.525539 -10.953060 -2.475632 -0.534966 3.859959 8.844864 -9.322124 -2.623068 0.000000 -0.000000 0.000000 -1.619364 -0.735754 3.638313 3.067057 -4.422878 -13.373696 4.282497 0.206587 11.899158 -1.774796 9.584448 29.317977 6.427843 4.303034 -22.934363 34.303543 11.410747 -18.653082 -1.627785 -24.356355 -4.080487 104.906230 -60.926567 -108.423813 6.795832 -21.425010 -57.025321 -35.217534 -9.759646 -17.663775 -4.065537 15.885547 -10.935138 -117.953194 71.007845 -119.835455 16.646835 22.188619 -46.086487 
0.484373 0.185244 1.008908 92.382635 2.634445 98.428008 4.878631 1.293581 -5.873176 4.007440 0.443257 -7.247139 -3.024475 9.740295 -0.709728 0.000000 -0.000000 0.000000 -1.727456 -1.543532 -10.424368 -2.470995 -0.026718 3.210221 8.806198 -9.870653 -2.662777 0.000000 -0.000000 0.000000 -1.476540 -0.748892 4.026825 2.854850 -4.002692 -15.486201 4.252262 0.196843 12.302353 -1.043929 9.644159 26.458339 6.320666 2.892848 -24.361786 35.866842 14.245644 -18.259818 1.074981 -23.330394 -7.122254 100.745480 -58.722314 -104.390962 6.064093 -22.565903 -56.364757 -36.145827 -12.659769 -17.344940 -5.249235 14.923664 -13.130009 -112.345948 68.759004 -113.472354 17.093811 21.988912 -44.862681 
0.487640 0.185419 1.010122 92.252108 2.529075 98.942956 4.788758 -0.181368 -5.915701 4.250939 0.146587 -7.498677 -2.556524 11.632185 -1.125213 0.000000 -0.000000 0.000000 -1.968738 -1.043105 -10.729229 -2.388140 -0.701770 3.182185 7.590730 -9.330884 -2.248418 0.000000 -0.000000 0.000000 -1.921694 -0.731102 3.349459 3.304426 -3.468623 -15.583844 3.535012 0.296866 11.615697 1.193643 11.828731 22.640561 5.501727 2.282175 -24.858245 38.861089 18.985173 -18.181034 -0.494115 -24.993025 -9.563092 96.887880 -55.850074 -97.494256 4.057236 -24.536277 -57.298717 -35.937236 -15.611898 -19.385979 -4.344933 15.530241 -10.431939 -106.148272 62.598497 -105.258650 15.140861 21.221713 -45.083043 
0.492004 0.185299 1.011144 92.121545 2.621611 98.935897 4.853691 -0.143605 -5.465491 4.343051 0.219761 -7.703125 -2.582545 11.689697 -1.320267 0.000000 -0.000000 0.000000 -1.824729 -0.964306 -10.101353 -2.396811 -0.411534 2.510662 7.308558 -9.629074 -2.268947 0.000000 -0.000000 0.000000 -1.453007 -0.503939 4.401002 2.889495 -2.874352 -17.561349 3.267036 0.441415 10.974013 1.804001 12.224711 18.905622 5.015468 1.432115 -26.290878 39.102780 21.391450 -18.357133 0.027174 -25.951556 -11.543191 95.234752 -52.284896 -94.939029 2.976251 -24.986597 -56.444316 -35.720999 -18.159395 -19.690848 -3.912803 15.992759 -11.906890 -103.686514 58.541716 -101.481238 14.668565 20.205318 -45.270326 
0.495718 0.185114 1.011383 92.155940 2.712176 99.205370 5.011792 -0.100078 -5.431093 4.275822 0.301297 -7.857981 -2.548464 11.595184 -1.471347 0.000000 -0.000000 0.000000 -1.695643 -1.144030 -9.806523 -2.381738 -0.137053 1.872521 7.052093 -9.843573 -2.292567 0.000000 -0.000000 0.000000 -1.154819 -0.575003 4.843308 2.685365 -2.532463 -19.508601 3.135438 0.717332 10.960965 2.005396 12.651717 14.337529 4.334190 1.035271 -26.865877 38.960135 23.440560 -18.530100 -0.224468 -26.302871 -12.701541 95.398339 -48.496836 -94.039749 3.107373 -23.895030 -55.907818 -35.365550 -20.084624 -19.574590 -3.415047 15.975419 -13.277902 -102.616226 54.478549 -99.233020 13.228389 18.183773 -44.967007 
0.499385 0.184656 1.011369 92.317774 2.742314 99.645844 5.139456 -0.165810 -5.634347 4.197674 0.314150 -7.966693 -2.506661 11.556807 -1.525533 0.000000 -0.000000 0.000000 -1.620586 -1.304216 -9.677115 -2.354726 0.090874 1.242574 6.844321 -10.164564 -2.318259 0.000000 -0.000000 0.000000 -0.895213 -0.700575 5.046146 2.394530 -2.340657 -21.316791 2.874334 1.006747 10.833192 2.255421 13.068206 10.097116 4.085677 0.957185 -27.657486 38.285016 25.285235 -18.678008 -0.333742 -26.291566 -13.817641 96.621494 -45.812840 -94.217846 3.690322 -22.807364 -55.378961 -34.416185 -21.876639 -19.496321 -2.417759 15.653504 -14.552094 -102.759320 51.039791 -97.897073 11.683357 15.988684 -44.279322 
